<svg xmlns="http://www.w3.org/2000/svg"  viewBox="0 0 120 120" width="120px" height="120px" baseProfile="basic"><rect width="73.813" height="25" x="8.997" y="66.597" opacity=".35" transform="rotate(-45.001 45.903 79.098)"/><rect width="73.813" height="25" x="8.997" y="61.597" fill="#0075ff" transform="rotate(-45.001 45.903 74.098)"/><path d="M89.645,52.033L72,52l-0.033-17.645l18.482-18.482C87.195,14.664,83.675,14,80,14 c-16.569,0-30,13.431-30,30s13.431,30,30,30s30-13.431,30-30c0-3.675-0.664-7.195-1.873-10.449L89.645,52.033z" opacity=".35"/><path fill="#52afff" d="M89.645,48.033L72,48l-0.033-17.645l18.482-18.482C87.195,10.664,83.675,10,80,10 c-16.569,0-30,13.431-30,30s13.431,30,30,30s30-13.431,30-30c0-3.675-0.664-7.195-1.873-10.449L89.645,48.033z"/></svg>